<?xml version="1.0" encoding="UTF-8"?>
<svg id="Layer_1" data-name="Layer 1" xmlns="http://www.w3.org/2000/svg" viewBox="0 0 900 900">
  <defs>
    <style>
      .cls-1 {
        fill: #020202;
      }

      .cls-1, .cls-2, .cls-3, .cls-4, .cls-5, .cls-6 {
        stroke-width: 0px;
      }

      .cls-2 {
        fill: #f27023;
      }

      .cls-3 {
        fill: #0b67b1;
      }

      .cls-4 {
        fill: #fff;
      }

      .cls-5 {
        fill: #ec1d2f;
      }

      .cls-6 {
        fill: #0db04b;
      }
    </style>
  </defs>
  <rect class="cls-5" x="449.71" y="177.63" width="329.49" height="333.93"/>
  <rect class="cls-1" x="120.8" y="177.63" width="329.49" height="333.93"/>
  <path class="cls-4" d="M175.37,284.01c-8.02-.12-13.56-.68-19.78-5.84v9.04c6.91,2.64,11.53,2.41,18.88,2.53,15.27.35,33.59-4.46,32.91-23.39-.56-14.55-9.04-17.76-19.22-23.71l-13.45-7.91c-5.32-3.09-9.39-6.42-9.95-12.48-.8-9.39,9.38-15.7,18.66-15.12,6.56.22,11.3,1.25,16.05,5.84v-8.83c-6.1-2.52-10.28-2.29-16.96-2.52-14.24-.47-27.36,7.56-27.25,21.08.11,9.16,4.98,14.77,13.24,19.7l15.37,8.95c7.01,4.01,13,8.25,13,16.38,0,10.65-8.14,16.74-21.49,16.27"/>
  <path class="cls-4" d="M211.43,209.85c.86,1.09,1.17,1.83,1.49,3.03l28.28,77.2,20.68-57.76,21.1,57.33,26.67-75.35c.44-1.31.97-2.06,1.61-3.25.98-1.52,1.61-2.51,2.79-3.92h-11.79c.65.98.86,1.74.96,2.94.1,1.4-.32,2.39-.96,3.8l-18.21,54.83-19.71-55.49c-.43-1.4-.64-2.39-.32-3.9.21-.88.42-1.31.85-2.06h-14.57c.86.86,1.5,1.52,2.25,2.49.86,1.08,1.61,1.73,2.14,3.14l3.96,10.22-16.81,45.38-19.61-56.46c-.31-.88-.21-1.52,0-2.39.11-.98.43-1.52.96-2.39h-14.66c1.28.76,1.92,1.4,2.89,2.6"/>
  <path class="cls-4" d="M313.89,231.24c.56.84.86,1.51,1.17,2.53.38,1.14.44,1.81.44,2.89v46.45c0,1.12,0,1.86-.43,2.87v.02s0,.01,0,.01c-.21.72-.41,1.14-.87,1.83l-.29.43h9.82l-.25-.42c-.12-.2-.23-.37-.34-.54-.31-.49-.57-.88-.69-1.5-.21-1.88-.21-4.43-.21-7.38v-41.94c0-.84,0-1.33.51-3.13.3-.82.52-1.43.89-2.17l.2-.4h-10.22l.28.43Z"/>
  <path class="cls-4" d="M410.47,207.13h-9c.32,1.2.54,1.96.75,3.15.75,3.91.54,6.4.54,10.31v51.46l-56.03-64.82h-11.78c1.07.66,1.71,1.31,2.25,2.51.65,1.19.86,2.17.86,3.47v67.75c0,1.63,0,2.72-.44,4.35-.21,1.2-.63,1.84-1.4,2.93h10.19c-.43-1.42-.75-2.17-.96-3.47q-.75-3.59-.75-5.97v-60.26l64.71,72.41-.11-75.89c0-1.63,0-2.6.32-4.34.21-1.4.42-2.28.86-3.59"/>
  <path class="cls-4" d="M209.19,379.01c-3,.22-4.93-.11-7.82-.98v-34.73c2.69-.66,4.3-.66,6.96-.66,10.61.32,21,4.13,21.32,18.03.32,11.73-9.96,17.69-20.46,18.35M200.93,308.22h7.82c9.97,0,15.43,5.86,15.86,14.01.31,8.79-5.04,15.21-16.71,15.21h-6.97v-29.21ZM238.22,360.77c0-10.64-4.94-17.27-13.83-20.3l-3.22-1.2,3.01-1.83c5.78-3.37,8.89-7.5,8.68-15.21-.54-10.53-8.57-19.43-18.96-19.43h-24.22c.75,1.08,1.18,1.85,1.72,3.03.75,1.74,1.08,2.93,1.08,4.79v66.75c0,1.64-.22,2.73-.76,4.25-.43.88-.64,1.42-1.28,2.28h21.32c16.29,0,26.36-8.79,26.47-23.12"/>
  <path class="cls-4" d="M312.94,310.28c0-1.52-.1-2.39.11-3.9.22-1.42.44-2.29.85-3.59h-11.13c.53,1.3.74,2.17,1.07,3.59.21,1.51.21,2.48.21,4.11v46.47c0,11.5-8.57,20.74-20.79,21.06-12.31.43-23.35-9.22-23.35-21.71v-46.36c0-1.42-.1-2.39.22-3.8.21-1.4.43-2.17.96-3.36h-10.92c.53,1.52.75,2.48.97,4.22.21,1.43.1,2.29.1,3.71v46.57c0,16.51,14.36,28,32.03,27.79,16.5-.31,29.68-11.72,29.68-27.36v-47.44Z"/>
  <path class="cls-4" d="M340.54,337.1v-28c3.11-1.42,5.15-1.52,8.47-1.52,12.96.55,15.11,7.5,15.53,14,.64,9.02-6.01,14.88-17.03,15.76-2.57.11-5.47,0-6.97-.23M384.67,380.74c-2.46-2.16-4.38-4.76-6.85-8.02l-19.07-24.55c-2.04-2.6-3.32-4.01-5.58-6.18-.63-.54-.96-.98-1.6-1.52,11.78,1.83,21.53-7.82,21.74-19.11.33-11.62-9.11-18.68-19.6-18.68h-24.11c.64,1.2,1.18,1.97,1.5,3.38.53,3.03.64,4.76.64,7.81v58.2c0,3.03,0,6.61-.32,8.24-.11,1.31-.64,2.06-1.29,3.37h11.79c-.54-1.52-.96-2.39-1.18-3.91-.43-1.74-.32-2.71-.32-4.45v-37.24c.53.32.95.54,1.39.98.96.76,1.28,1.51,2.15,2.6l32.13,42.33h12.64c-1.6-1.19-2.57-1.96-4.07-3.26"/>
  <path class="cls-4" d="M285.08,401.38c.75,3.91.54,6.4.54,10.31v51.46l-56.03-64.81h-11.78c1.07.64,1.71,1.3,2.24,2.48.65,1.21.85,2.18.85,3.48v67.76c0,1.62,0,2.71-.43,4.34-.21,1.19-.63,1.85-1.38,2.93h10.18c-.43-1.42-.75-2.17-.96-3.47q-.75-3.59-.75-5.98v-60.25l64.71,72.43-.11-75.89c0-1.63,0-2.61.33-4.35.21-1.4.42-2.28.86-3.59h-9.01c.32,1.2.54,1.97.75,3.15"/>
  <path class="cls-4" d="M346.99,473.25h-25.6v-36.25h21.42c1.28,0,2.25,0,3.53.22,1.82.43,2.89.76,4.5,1.52v-7.71h-29.78v-26.72h21.76c1.82,0,3.11-.32,4.93.34,1.28.43,2.14.97,3.1,1.94v-8.13h-40.82c.75.76,1.08,1.3,1.5,2.27.43,1.21.66,2.07.66,3.49v67.96c0,1.51.2,2.6-.22,4.13-.32,1.19-.65,1.95-1.4,3.03h46.17l2.79-9.11c-1.28.86-2.14,1.3-3.64,1.74-3.32,1.08-5.35,1.3-8.89,1.3"/>
  <path class="cls-4" d="M186.9,434.7c-.08-.06-.91-.29-1.15-.34-.16-.05-.53.11-.67.01l-.11-.17c-.45.01-1.83.46-2.27.68-1.04.56-1.45,1.13-2.36,1.21l-.21.02c-.1-.01-.86-.54-.95-.71-.09-.18.03-.58.07-.74.38-1.86,3.07-1.26,4.14-1.76.62-.29,1.05-.85,1.3-1.27.28-.47.72-2.31.57-2.83-.05-.16-.7-2.1-.43-2.94.06-.22.25-.71.17-.92-.05-.11-.4-.41-.4-.41-.56.22-1.04.54-1.59.66-.61.13-1.32-.01-1.9.07-1.11.14-2.55.84-3.12,2.09-1.14,2.49.02,4.01.1,4.45.02.19.12.17.13.36.04.59-1.08,1.36-1.63,1.27-.4-.06-1.13-.83-1.17-1.37-.01-.02.07-1.01.15-1.27.06-.17.18-.74.17-.91-.04-.56.11-1.45-.12-2.02-.1-.22-.63-1.3-.8-1.5-.07-.07-1.88-1.22-2.01-1.25-.12-.02-.86-.11-.99-.11-.37-.02-1.64-.1-1.64-.1,0,0-1.44-.84-1.53-.89-.11-.06-.57.08-.63.08-.06.19-.25.43-.24.64.02.74.51,1.18.33,1.97-.21.86-.69,1.79-.68,2.67.01,1.2.99,2.71,2.02,3.44.18.12.58.17.76.28.36.18.5.43.84.55.17.05.54-.06.67-.01.13.04,2.08,1.31,2.17,1.48.08.2-.1.67-.23.85-.39.49-.94.49-1.42.42l-.15.11c-.19-.13-.52-.3-.6-.38-.17-.16-.25-.48-.43-.62-.15-.12-1.27-.64-1.54-.76-.53-.22-1.85-.22-2.44.12-.32.17-.86.78-1.12,1.02-.14.12-.36.17-.47.31-.46.59-.6,1.57-.91,2.16-.23.43-.66.7-.8,1.15-.13.4.02.49.22,1,.02-.01.2-.05.2-.05,0,0,1.1.78,1.59,1.33.49.53,1.83,1.2,2.41,1.18.27-.01,1.27-.18,1.45-.22.45-.08,1.19-.42,1.61-.79.17-.14,1.26-1.92,1.31-2.09.04-.1,1.3-1.63,1.85-1.3.04.02.77.66.91.97.08.2-.03.82-.11,1.01-.24.52-.92.71-1.43,1.25-.15.13-.88,1.26-1.03,1.64-.1.29-.02.64-.02.95-.01.85.06,1.88.96,2.9.15.17.61.46.77.62.61.61,1.32,1.81,2.05,1.65.71-.13,1.09-.96,1.86-1.44.83-.49,1.66-1.28,1.99-2.09.14-.35.09-1.09.12-1.47,0-.05-.24-1.2-.45-1.65-.16-.32-.3-.85-.65-1.27-.45-.5-1.51-.77-1.78-1.4-.01-.04.14-.29.13-.32,0-.19-.17-.24-.19-.44-.02-.13.23-.94.32-1.03.61-.68,1.86-.43,2.27.01.6.61.46,1.38.8,1.98.76,1.36,2.71,2.25,3.73,2.11.21-.04.97-.17,1.2-.28.61-.3,1.09-.9,1.42-1.24.47-.48,1.51-.94,1.81-1.51.25-.47-.46-1.77-.67-2.3-.24-.64-.83-2.03-1.5-2.52"/>
  <path class="cls-4" d="M406.59,438.36c-.31-.58-.46-1.57-.92-2.15-.1-.14-.32-.22-.46-.32-.25-.23-.8-.86-1.12-1.02-.59-.34-1.91-.34-2.44-.12-.3.12-1.39.65-1.56.76-.18.16-.25.48-.43.64-.09.08-.4.25-.6.37l-.16-.11c-.47.07-1.03.07-1.41-.42-.14-.18-.31-.65-.22-.85.08-.17,2.03-1.44,2.15-1.48.15-.05.51.06.69.01.34-.11.49-.36.84-.55.18-.11.58-.16.76-.28,1.02-.72,2.01-2.24,2.02-3.44.01-.88-.46-1.81-.67-2.67-.19-.78.28-1.22.33-1.97.01-.2-.18-.43-.25-.62-.05-.01-.52-.16-.62-.1-.1.06-1.53.89-1.53.89,0,0-1.31.06-1.67.1-.12.01-.85.08-.98.11s-1.96,1.19-2.01,1.25c-.18.19-.72,1.3-.8,1.51-.25.56-.09,1.45-.12,1.99,0,.18.11.76.16.94.09.26.17,1.24.16,1.26-.04.54-.77,1.31-1.17,1.37-.55.08-1.66-.68-1.63-1.27.02-.19.11-.17.14-.36.06-.43,1.23-1.96.08-4.45-.56-1.25-2-1.94-3.11-2.09-.57-.08-1.29.06-1.89-.06-.57-.13-1.04-.46-1.6-.67,0,0-.36.3-.4.42-.08.2.1.71.15.91.27.84-.36,2.78-.41,2.94-.16.53.28,2.36.56,2.83.26.41.7.98,1.3,1.26,1.07.52,3.75-.07,4.14,1.78.04.17.15.58.06.74-.09.17-.85.71-.95.72l-.21-.04c-.91-.08-1.32-.66-2.37-1.21-.43-.23-1.81-.67-2.26-.67l-.11.16c-.14.1-.51-.05-.67-.02-.23.06-1.06.3-1.15.35-.67.49-1.27,1.88-1.5,2.52-.2.53-.91,1.85-.67,2.31.32.56,1.34,1.03,1.82,1.5.33.34.81.94,1.43,1.25.22.11.98.23,1.19.26,1.01.14,2.98-.76,3.73-2.11.33-.6.21-1.37.8-1.98.42-.44,1.67-.7,2.28,0,.08.08.33.89.31,1.02-.02.2-.18.25-.19.44,0,.04.13.29.12.32-.26.64-1.33.89-1.77,1.42-.34.42-.48.92-.65,1.27-.2.44-.44,1.6-.44,1.65.04.37-.02,1.12.12,1.46.33.8,1.17,1.61,1.98,2.1.77.47,1.16,1.3,1.86,1.44.75.14,1.44-1.04,2.07-1.67.15-.16.61-.46.76-.62.91-1.02.98-2.05.96-2.89,0-.32.08-.67-.04-.96-.13-.38-.88-1.5-1.02-1.65-.51-.52-1.2-.72-1.43-1.24-.08-.18-.19-.82-.11-1,.14-.31.86-.97.91-.98.54-.34,1.81,1.2,1.84,1.3.06.17,1.15,1.94,1.31,2.09.43.37,1.16.71,1.63.79.18.04,1.18.2,1.44.22.6.02,1.93-.65,2.41-1.19.5-.54,1.59-1.3,1.59-1.3,0,0,.18.01.2.02.21-.5.36-.59.23-1-.14-.46-.57-.72-.8-1.15"/>
  <path class="cls-4" d="M519.4,289.38l4.59,2.65c1.96,1.13,3.75,2.35,3.75,4.68,0,2.9-2.15,4.64-5.76,4.64-.14,0-.27,0-.41-.01-2.28-.04-3.92-.17-5.76-1.69l-.36-.3v3.32l.14.05c1.87.71,3.19.73,5.04.76h.66s.44.01.44.01c2.06,0,5.82-.34,7.98-2.6,1.11-1.19,1.66-2.72,1.59-4.58-.15-4.02-2.26-5.22-4.92-6.73-.3-.17-.6-.34-.91-.52l-4-2.35c-1.6-.94-2.7-1.89-2.85-3.54-.08-.95.23-1.83.91-2.58.94-1.04,2.51-1.7,4.06-1.7.11,0,.22.01.34.01,1.9.06,3.27.37,4.64,1.68l.37.36v-3.3l-.14-.05c-1.63-.67-2.8-.71-4.43-.74l-.69-.02h-.36c-2.53,0-4.83.86-6.31,2.37-1.11,1.13-1.69,2.54-1.66,4.11.03,2.57,1.24,4.38,4.04,6.07"/>
  <path class="cls-4" d="M532.57,278.33c.25.34.34.55.43.9l8.88,24.24.21.56,6.48-18.13,6.42,17.44.21.55,8.58-24.23c.09-.26.2-.46.33-.68.05-.1.11-.19.15-.28.31-.49.5-.78.86-1.21l.3-.37h-4.57l.23.35c.18.29.23.5.27.83.03.36-.08.62-.29,1.09l-5.51,16.62-5.99-16.83c-.13-.44-.18-.7-.09-1.1.05-.25.11-.37.24-.59l.2-.34h-5.47l.36.38c.24.24.44.46.69.76.06.08.13.17.2.24.18.23.33.4.44.7l1.22,3.13-5.05,13.6-5.95-17.16c-.07-.19-.06-.34.01-.65.03-.25.09-.38.27-.66l.21-.34h-5.8l.69.42c.38.22.57.41.86.76"/>
  <path class="cls-4" d="M568.47,278.65c.17.5.2.78.2,1.27v20.72c0,.5,0,.8-.2,1.26-.1.31-.18.5-.37.79l-.24.35h4.73l-.2-.34c-.05-.1-.11-.17-.15-.24-.13-.22-.25-.38-.29-.62-.1-.84-.1-1.97-.1-3.27v-18.73c0-.35,0-.58.22-1.34l.04-.1c.12-.32.21-.59.36-.88l.16-.32h-4.9l.22.35c.28.41.39.71.51,1.1"/>
  <path class="cls-4" d="M577.21,278.27c.18.34.24.6.24.98v21.28c0,.49,0,.83-.13,1.33-.06.32-.18.49-.4.82l-.24.36h3.91l-.1-.29c-.03-.12-.06-.23-.09-.34-.08-.25-.15-.44-.2-.74q-.24-1.09-.24-1.82v-18.35l19.94,22.32.38.42-.04-24.39c0-.5,0-.8.1-1.34.06-.4.12-.66.26-1.08l.1-.29h-3.41l.12.47c.08.26.13.47.18.78.18.97.18,1.64.17,2.53v16.24l-17.21-19.91-.07-.08h-4.57l.66.41c.31.2.47.37.62.71"/>
  <path class="cls-4" d="M610.08,288.04h-1.98v-8.72h2.23c2.85,0,4.63,1.56,4.77,4.17.05,1.3-.32,2.39-1.05,3.17-.86.9-2.24,1.38-3.97,1.38M610.19,290.11c4.21.14,6.4,1.98,6.48,5.44.09,3.55-3.05,5.34-6.22,5.54-.89.07-1.47-.04-2.22-.25v-10.57c.71-.17,1.18-.17,1.96-.17M604.69,278.42c.21.5.33.85.33,1.42v20.98c0,.47-.06.78-.22,1.22l-.07.13c-.09.2-.16.34-.32.54l-.27.37h7.14c5.22,0,8.48-2.87,8.52-7.48,0-3.36-1.51-5.57-4.48-6.58l-.58-.22.55-.34c2.08-1.21,2.9-2.65,2.83-4.99-.18-3.54-2.89-6.31-6.17-6.31h-8.02l.24.35c.23.35.36.56.52.91"/>
  <path class="cls-4" d="M623.93,278.74c.05.32.04.54.04.82v14.94c0,5.1,4.35,8.95,10.11,8.95h.17c5.44-.11,9.53-3.89,9.53-8.8v-14.91c0-.13,0-.24,0-.35,0-.29-.01-.5.04-.84.06-.43.12-.7.25-1.09l.09-.3h-4.13l.12.31c.17.38.23.65.33,1.08.07.46.07.74.07,1.26v14.58c0,3.61-2.66,6.3-6.31,6.39-.08.01-.17.01-.25.01-3.78,0-6.86-2.96-6.86-6.61v-14.81c-.01-.3-.01-.55.06-.9.05-.42.12-.66.28-1.01l.14-.31h-4.08l.1.3c.16.44.22.73.29,1.28"/>
  <path class="cls-4" d="M651.6,279.51c.84-.36,1.43-.41,2.44-.41,3.88.17,4.54,2.22,4.66,4.2.2,2.69-1.73,4.44-5.14,4.7-.69.05-1.45,0-1.96-.04v-8.46ZM648.22,278.44c.17.98.19,1.52.19,2.42v18.27c0,.92,0,2.06-.09,2.57-.02.3-.12.48-.28.78l-.26.53h4.35l-.1-.29c-.04-.12-.08-.23-.12-.34-.11-.3-.18-.52-.25-.88-.09-.42-.09-.68-.08-1.08v-11.56s.05.06.08.08c.18.14.27.28.4.47.07.08.15.2.24.31l10.08,13.29.07.08h4.74l-.53-.4c-.49-.36-.79-.59-1.27-1.01-.7-.6-1.23-1.32-1.92-2.23l-6.18-7.96c-.63-.8-1.05-1.27-1.78-1.99,0,0-.02-.01-.04-.01h.31c3.31,0,6.06-2.82,6.13-6.28.04-1.62-.49-3.05-1.54-4.14-1.18-1.24-2.95-1.94-4.83-1.94h-7.93l.29.54c.14.26.26.46.34.77"/>
  <path class="cls-4" d="M668.75,278.27c.18.34.25.6.25.98v21.28c0,.49,0,.83-.14,1.32-.06.32-.17.5-.4.83l-.24.36h3.91l-.08-.29c-.04-.12-.08-.22-.09-.31-.1-.26-.16-.47-.2-.77q-.24-1.09-.24-1.82v-18.35l19.93,22.32.38.42-.04-24.39c0-.5,0-.8.11-1.34.05-.41.12-.68.25-1.08l.1-.29h-3.41l.07.28c.1.37.17.61.24.97.19.97.18,1.67.17,2.55-.01.2-.01.41-.01.64v15.58l-17.21-19.91-.07-.08h-4.57l.67.41c.31.2.47.37.61.71"/>
  <path class="cls-4" d="M696.45,278.21c.13.35.2.6.2,1.02v21.68c.02.3.02.56-.06.89-.1.37-.19.58-.41.88l-.24.36h15.08l1.11-3.62-.51.35c-.38.26-.63.38-1.09.52-1.04.35-1.66.41-2.73.41h-7.82v-10.95h6.51c.39,0,.69,0,1.06.07.55.13.88.23,1.37.46l.31.14v-2.99h-9.35v-7.94h6.61c.14,0,.28-.01.41-.02.32-.01.6-.06,1.07.11.37.13.6.28.89.56l.37.37v-3.31h-13.56l.37.38c.22.22.31.37.43.64"/>
  <path class="cls-4" d="M498.7,347.28c5.43-.1,9.53-3.9,9.53-8.8v-14.91c0-.12,0-.23,0-.34,0-.29,0-.52.04-.85.07-.44.13-.7.26-1.08l.11-.31h-4.14l.12.32c.16.38.22.65.32,1.07.07.46.07.76.07,1.26v14.6c0,3.6-2.65,6.28-6.31,6.39-.08.01-.15.01-.24.01-3.72,0-6.86-3.03-6.86-6.61v-14.84c0-.3-.01-.54.07-.89.05-.42.11-.64.28-1l.15-.32h-4.09l.11.31c.16.43.23.72.3,1.28.05.3.04.52.04.79,0,.11,0,.22,0,.34v14.62c0,5.11,4.35,8.95,10.11,8.95h.17Z"/>
  <path class="cls-4" d="M515.89,346.27c-.09-.26-.15-.46-.2-.76q-.24-1.1-.24-1.83v-18.34l19.94,22.32.38.42-.04-24.41c0-.49,0-.79.11-1.33.06-.42.12-.68.26-1.09l.09-.3h-3.41l.11.38c.08.32.14.54.21.88.18.97.17,1.67.17,2.54,0,.2,0,.42,0,.66v15.58l-17.22-19.92-.05-.07h-4.57l.66.41c.33.2.48.37.63.7.18.34.24.6.24,1v21.26c0,.5,0,.83-.14,1.33-.05.34-.17.52-.4.83l-.24.35h3.91l-.09-.29c-.04-.11-.07-.2-.1-.31"/>
  <path class="cls-4" d="M544.42,322.28c.12-.35.22-.61.37-.91l.17-.32h-4.89l.22.34c.27.42.38.71.51,1.12.17.49.19.78.19,1.26v20.72c0,.5,0,.8-.19,1.26-.11.34-.2.53-.37.8l-.23.34h4.72l-.19-.34c-.05-.08-.11-.17-.16-.24-.14-.2-.24-.37-.28-.62-.1-.84-.1-1.97-.1-3.29v-18.71c0-.36,0-.59.24-1.4"/>
  <path class="cls-4" d="M552.29,320.97h-5.15l.62.41c.34.23.52.41.74.76.14.2.22.4.3.6.03.06.06.13.09.23l11.75,24.31.2.41,11.19-24.12c.17-.35.29-.58.53-.97.27-.52.48-.82.79-1.22l.26-.36h-4.22l.08.29c.1.31.13.53.13.84-.02.3-.13.53-.24.78-.05.1-.1.19-.14.3l-8.28,18.01-8.83-18.83c-.08-.24-.14-.37-.14-.59,0-.17.03-.3.15-.52l.19-.32Z"/>
  <path class="cls-4" d="M576.78,346.53l-.24.35h15.07l1.09-3.62-.5.35c-.41.28-.66.4-1.09.53-1.05.35-1.66.4-2.73.4h-7.82v-10.94h6.51c.4,0,.68,0,1.06.06.59.13.89.24,1.37.47l.31.14v-2.99h-9.35v-7.95h6.61c.14,0,.28,0,.41-.02.32-.01.59-.06,1.06.12.38.12.62.28.89.56l.37.37v-3.31h-13.57l.38.37c.22.22.31.37.43.65.12.36.2.6.2,1.01v21.68c.01.32.02.56-.08.89-.09.37-.18.59-.4.89"/>
  <path class="cls-4" d="M599.3,323.34c.85-.36,1.43-.4,2.44-.4,3.86.17,4.52,2.11,4.66,4.2.18,2.67-1.74,4.43-5.15,4.69-.7.05-1.46,0-1.96-.04v-8.45ZM614.36,346.55c-.5-.37-.79-.61-1.27-1.02-.72-.64-1.31-1.4-2.04-2.36l-6.08-7.83c-.67-.86-1.09-1.3-1.78-1.98,0,0-.02-.01-.04-.02.1,0,.2.01.3.01,3.33,0,6.07-2.82,6.14-6.28.04-1.62-.49-3.06-1.54-4.16-1.18-1.22-2.95-1.93-4.83-1.93h-7.92l.17.32c.04.08.09.16.13.24.14.25.24.44.31.74.17.97.2,1.51.2,2.42v18.28c0,.91,0,2.06-.09,2.58-.03.28-.12.47-.28.76l-.26.54h4.36l-.11-.3c-.04-.12-.08-.22-.11-.32-.12-.3-.2-.53-.25-.88-.11-.43-.11-.71-.11-1.07v-11.57s.06.05.09.07c.18.13.28.29.4.47.07.1.15.19.22.31l10.09,13.3.06.08h4.74l-.52-.4Z"/>
  <path class="cls-4" d="M614.6,327.16c.03,2.57,1.24,4.38,4.05,6.06l4.57,2.66c1.98,1.12,3.76,2.34,3.76,4.68,0,2.9-2.17,4.63-5.77,4.63-.14,0-.27,0-.41-.01-2.28-.04-3.92-.17-5.75-1.69l-.36-.29v3.3l.14.07c1.88.72,3.2.73,5.03.74h.66s.44.01.44.01c2.06,0,5.83-.34,7.98-2.59,1.11-1.19,1.66-2.72,1.59-4.58-.15-4.02-2.25-5.22-4.91-6.73-.3-.17-.6-.35-.91-.53l-4-2.35c-1.6-.92-2.7-1.88-2.85-3.54-.08-.94.23-1.82.91-2.58.94-1.04,2.5-1.69,4.06-1.69.11,0,.23.01.35.01,1.91.06,3.27.36,4.64,1.67l.36.37v-3.3l-.14-.05c-1.63-.67-2.8-.71-4.43-.74l-.69-.04h-.36c-2.53,0-4.83.88-6.31,2.37-1.1,1.13-1.67,2.55-1.66,4.13"/>
  <path class="cls-4" d="M638.14,322.31c.12-.36.22-.64.38-.96l.17-.31h-4.89l.22.34c.24.37.37.66.51,1.12.15.48.19.77.19,1.26v20.72c0,.5,0,.8-.19,1.26-.1.31-.18.49-.37.8l-.22.34h4.72l-.2-.34c-.05-.08-.09-.16-.14-.23-.14-.22-.25-.38-.3-.64-.09-.84-.09-1.97-.09-3.29v-18.71c0-.36,0-.59.22-1.37"/>
  <path class="cls-4" d="M643.46,323.39h6.11v21.05c0,.18,0,.32.01.47.02.31.03.55-.04.85-.1.32-.16.5-.32.79l-.18.32h4.66l-.21-.34c-.18-.31-.31-.53-.33-.84-.14-.77-.14-.84-.14-1.12v-21.3h5.27c.51,0,.85.06,1.43.24.45.1.73.2,1.09.38l.35.19-.3-3.09h-19.25l-.67,3.3.43-.26c.43-.26.75-.43,1.26-.53.33-.08.51-.12.81-.12"/>
  <path class="cls-4" d="M681.48,323.38c.28-.46.44-.71.73-1.1.28-.38.47-.61.82-.92l.41-.38h-4.25l.04.25c.04.23.04.36.01.56-.07.25-.17.43-.35.72l-5.53,8.87-5.07-8.32-.07-.1c-.19-.31-.33-.53-.44-.9-.07-.29-.09-.5-.07-.82l.02-.24h-4.89l.49.4c.3.24.45.42.65.66l.05.05c.26.36.39.56.63.94l6.8,10.83v11.54c0,.17,0,.29-.04.47-.02.26-.09.44-.21.72l-.13.31h3.9l-.11-.29c-.08-.24-.11-.38-.15-.58l-.04-.14c-.07-.34-.11-.53-.11-.82v-11.21l6.91-10.49Z"/>
  <path class="cls-4" d="M709.1,322.98c5.51.1,9.7,4.65,9.78,10.61,0,2.75-1.04,5.47-2.84,7.5-1.86,2.11-4.35,3.26-7,3.26h-.23c-5.46-.12-9.64-4.87-9.54-10.82.08-5.12,3.51-10.55,9.71-10.55h.12ZM708.95,320.45c-7.16,0-12.98,5.94-12.98,13.22s5.6,13,12.75,13.24h.33c3.57,0,6.89-1.39,9.35-3.93,2.41-2.48,3.7-5.81,3.63-9.38-.13-7.22-5.61-12.87-12.72-13.14h-.36Z"/>
  <path class="cls-4" d="M729.13,331.23v-7.92h7.19c.36,0,.65.01.97.1.36.12.54.26.87.54l.35.29v-3.24h-13.32l.25.35c.15.22.28.41.37.71.13.32.19.58.19.97v21.34c0,.17,0,.31.02.46.01.28.02.53-.04.82-.09.36-.19.58-.39.95l-.17.32h4.31l-.07-.26c-.04-.16-.08-.28-.12-.37-.05-.11-.09-.2-.11-.36-.17-1.46-.2-2.01-.2-3.29v-9.08h6.5c.19,0,.35-.01.52-.01.29-.01.54-.01.93.01.32,0,.54.06.84.13l.53.13v-2.58h-9.43Z"/>
  <path class="cls-4" d="M495.58,364.84l-.68,3.3.43-.26c.44-.26.75-.42,1.27-.53.31-.1.49-.12.81-.12h6.11v21.05c0,.18,0,.32.02.46.02.32.02.58-.04.88-.1.31-.16.49-.33.78l-.18.34h4.67l-.21-.34c-.21-.36-.31-.55-.34-.85-.14-.77-.14-.83-.14-1.1v-21.3h5.27c.58,0,.93.06,1.44.23.4.1.7.19,1.09.38l.36.19-.3-3.09h-19.24Z"/>
  <path class="cls-4" d="M533.29,387.97c-1.04.34-1.66.38-2.73.38h-7.82v-10.94h6.51c.4,0,.69,0,1.05.06.57.13.89.23,1.38.47l.31.16v-3.01h-9.35v-7.94h6.61c.14,0,.29,0,.43-.01.4-.02.72-.01,1.05.11.35.12.6.28.89.56l.37.37v-3.31h-13.55l.37.38c.2.2.29.35.41.62.14.36.2.6.2,1.02v21.35c0,.12,0,.24.01.36.02.3.02.55-.07.86-.1.38-.2.6-.41.89l-.24.36h15.08l1.1-3.62-.51.35c-.4.28-.66.4-1.09.53"/>
  <path class="cls-4" d="M550.04,388.67c-.12.01-.24.01-.36.01-3.24,0-6.15-1.16-8.21-3.27-1.91-1.97-2.89-4.56-2.85-7.48.06-6.38,4.67-11.01,10.98-11.01h.26c2.32.05,3.77.43,5.75,1.58l.32.18v-3.01l-.12-.05c-2.11-.91-3.56-1.08-6.01-1.13h-.14c-4.17,0-7.93,1.5-10.6,4.21-2.38,2.43-3.69,5.71-3.67,9.22.04,7.68,5.89,13.25,13.92,13.25.24,0,.51,0,.76-.01l.37-.02c2.18-.06,3.62-.1,5.75-.89l.09-.02,1.66-4.16-.6.43c-2,1.43-4.39,2.13-7.31,2.17"/>
  <path class="cls-4" d="M580.52,389.39c-.09-.42-.13-.72-.13-1.12v-20.41c-.01-.58-.02-1.03.13-1.65.1-.41.2-.67.36-1.01l.14-.31h-4.76l.34.36c.31.35.46.64.59,1.08.12.35.11.64.09,1.01v7.66h-13.23v-7.24c0-.67,0-1.1.2-1.73l.05-.13c.09-.26.17-.44.33-.72l.2-.34h-4.76l.25.36c.28.36.4.58.54.95.12.44.12.76.12,1.27v21.29c0,.38.01.66-.11,1.01-.12.26-.21.41-.41.68l-.27.36h4.72l-.35-.53c-.14-.2-.25-.37-.32-.58-.2-.85-.18-1.16-.17-1.7,0-.16.01-.35.01-.55v-10.09h13.19v11.52c.02.18.02.34,0,.48-.09.42-.18.66-.45,1.01l-.3.35h4.56l-.18-.32c-.18-.34-.27-.59-.38-.96"/>
  <path class="cls-4" d="M605.74,365.16c.08.32.14.55.21.9.18.97.18,1.67.17,2.53-.01.2-.01.43-.01.66v15.58l-17.2-19.91-.07-.08h-4.59l.67.41c.32.2.47.38.63.71.17.32.24.59.24.98v21.28c0,.49,0,.83-.14,1.32-.06.34-.17.5-.4.83l-.26.36h3.92l-.08-.29c-.04-.13-.08-.24-.11-.34-.08-.26-.14-.46-.19-.74q-.22-1.1-.22-1.82v-18.35l19.94,22.32.38.42-.04-24.41c0-.49,0-.79.11-1.32.06-.43.12-.7.25-1.09l.09-.3h-3.4l.09.36Z"/>
  <path class="cls-4" d="M625.55,366.82c5.5.1,9.7,4.66,9.77,10.61,0,2.75-1.04,5.48-2.84,7.51-1.86,2.1-4.35,3.25-7.01,3.25h-.22c-5.46-.12-9.66-4.88-9.54-10.82.09-5.12,3.53-10.55,9.73-10.55h.11ZM625.76,364.3h-.38c-7.15,0-12.97,5.92-12.97,13.2s5.6,13,12.76,13.25h.33c3.52,0,6.92-1.44,9.35-3.93,2.4-2.49,3.69-5.82,3.63-9.39-.13-7.21-5.61-12.87-12.72-13.13"/>
  <path class="cls-4" d="M657.18,387.96c-.08.01-.16.04-.28.08-.56.18-.88.22-1.41.22l-9.48.04-.04-20.1v-.49c-.01-.59-.02-1.01.13-1.6.09-.36.19-.58.36-.91l.15-.32h-4.67l.25.35c.27.37.39.67.5,1.06.14.49.17.74.17,1.24v21.08c0,.41,0,.7-.16,1.07-.08.24-.19.41-.37.66l-.25.36h15.13l1.12-3.07-.34-.25c-.62.54-.65.55-.83.6"/>
  <path class="cls-4" d="M671.5,366.82c5.5.1,9.7,4.66,9.76,10.61,0,2.75-1.03,5.48-2.84,7.51-1.86,2.1-4.35,3.25-7.01,3.25h-.21c-5.46-.12-9.66-4.88-9.55-10.82.1-5.12,3.54-10.55,9.73-10.55h.11ZM671.72,364.3h-.38c-7.15,0-12.97,5.92-12.97,13.2s5.6,13,12.76,13.25h.32c3.53,0,6.93-1.44,9.36-3.93,2.4-2.49,3.69-5.82,3.63-9.39-.14-7.21-5.6-12.87-12.71-13.13"/>
  <path class="cls-4" d="M706.87,378.03c.34.38.56.62.72,1.14.28.88.27,1.57.27,2.46v5.23c-1.99,1.13-3.58,1.42-5.48,1.5-.2.01-.4.01-.59.01-6.08,0-10.63-4.43-10.83-10.53-.07-2.99.98-5.84,2.86-7.83,1.83-1.93,4.38-2.97,7.35-3.02,2.09,0,4.56.2,6.92,1.63l.33.2v-3.15l-.14-.07c-2.42-.94-4.12-1.03-6.6-1.06h-.15c-8.21,0-13.59,5.24-13.72,13.35-.05,3.38,1.23,6.58,3.59,9.01,2.61,2.7,6.24,4.17,10.21,4.17.23,0,.46,0,.68-.01,3.66-.14,6.86-1.46,8.48-2.55l.1-.07-.04-8.61v-.22c0-.29-.01-.49.09-.78.1-.32.2-.5.43-.8l.28-.36h-5.11l.34.37Z"/>
  <path class="cls-4" d="M728.24,365.07c.04.2.04.36.01.55-.06.26-.18.46-.35.72l-5.53,8.88-5.08-8.32-.08-.13c-.18-.29-.31-.5-.43-.86-.06-.29-.08-.5-.05-.82l.02-.24h-4.91l.49.4c.3.25.46.41.66.66l.04.05c.26.37.4.58.63.94l6.8,10.83v11.56c0,.16.01.28-.04.44-.03.24-.08.42-.21.73l-.14.31h3.9l-.11-.3c-.07-.23-.11-.37-.14-.55l-.05-.17c-.06-.35-.09-.53-.09-.82v-11.21l6.9-10.48c.28-.46.44-.71.73-1.12.25-.35.45-.59.81-.91l.43-.4h-4.25l.04.26Z"/>
  <g>
    <path class="cls-3" d="M143.52,680.64l-2.7-8.16h-11.3l-2.7,8.16h-4.98l10.54-30.95h5.57l10.54,30.95h-4.97ZM136.1,657.34c-.37-1.15-.66-2.37-.89-3.68h-.08c-.22,1.31-.52,2.54-.89,3.68l-3.75,11.54h9.36l-3.75-11.54Z"/>
    <rect class="cls-3" x="152.04" y="647.08" width="4.64" height="33.56"/>
    <rect class="cls-3" x="163.01" y="647.08" width="4.64" height="33.56"/>
    <path class="cls-3" d="M177.81,652.64c-.53.51-1.17.77-1.94.77s-1.41-.26-1.95-.77c-.52-.52-.79-1.15-.79-1.88s.27-1.37.79-1.88c.54-.51,1.19-.77,1.95-.77s1.41.26,1.94.77c.54.51.8,1.14.8,1.88s-.27,1.37-.8,1.88M173.55,657.6h4.64v23.04h-4.64v-23.04Z"/>
    <path class="cls-3" d="M200.88,679.48c-2.01,1.08-4.73,1.62-8.18,1.62-6.56,0-9.83-2.4-9.83-7.23,0-2.9,1.41-4.99,4.22-6.24,2.05-.91,5.19-1.48,9.41-1.72v-1.45c0-2.62-1.6-3.93-4.81-3.93-2.22,0-4.31.47-6.28,1.42l-1.18-3.21c2.42-1.09,5.06-1.62,7.93-1.62,5.81,0,8.73,2.6,8.73,7.83v14.53ZM196.5,669.05c-3.04.17-5.15.49-6.37.95-1.94.71-2.91,1.98-2.91,3.8,0,2.62,1.78,3.93,5.35,3.93,1.77,0,3.07-.2,3.92-.6v-8.08Z"/>
    <path class="cls-3" d="M220.07,680.64v-15.39c0-2.91-1.59-4.36-4.76-4.36-1.69,0-3.08.23-4.18.68v19.07h-4.6v-21.89c2.61-1.09,5.53-1.62,8.73-1.62,6.3,0,9.44,2.57,9.44,7.69v15.82h-4.64Z"/>
    <path class="cls-3" d="M245.34,679.53c-1.55,1.06-3.48,1.58-5.82,1.58-2.79,0-5.08-.95-6.88-2.86-2.08-2.19-3.12-5.25-3.12-9.15s1.04-6.94,3.12-9.11c1.8-1.91,4.09-2.86,6.88-2.86,2.33,0,4.27.53,5.82,1.58l-1.51,3.37c-1.02-.74-2.25-1.1-3.72-1.1-1.66,0-3.01.64-4.05,1.92-1.18,1.46-1.77,3.51-1.77,6.15s.6,4.71,1.81,6.16c1.07,1.31,2.41,1.96,4.01,1.96,1.46,0,2.7-.37,3.72-1.11l1.51,3.46Z"/>
    <path class="cls-3" d="M267.6,669.01l-15.09,2.14c.48,4.16,2.8,6.25,6.96,6.25,2.49,0,4.57-.48,6.29-1.42l1.35,3.5c-2.07,1.08-4.7,1.62-7.93,1.62-3.54,0-6.3-1.09-8.26-3.24-1.94-2.12-2.92-5.03-2.92-8.77s.92-6.44,2.75-8.64c1.86-2.22,4.35-3.33,7.5-3.33,2.92,0,5.24.91,6.92,2.73,1.66,1.83,2.49,4.29,2.49,7.39,0,.77-.02,1.36-.05,1.76M263.22,666.53c-.02-3.99-1.72-5.98-5.05-5.98-1.81,0-3.22.66-4.27,1.97-1.09,1.33-1.66,3.18-1.69,5.56l11.01-1.55Z"/>
    <path class="cls-3" d="M307.76,680.64h-4.77l-4.05-14.62c-.28-1.03-.51-2.14-.67-3.34h-.09c-.19,1.2-.44,2.31-.72,3.34l-4.05,14.62h-4.77l-6.75-23.04h4.6l3.92,15.21c.28,1.08.5,2.29.63,3.63h.08c.23-1.34.48-2.56.76-3.63l4.13-15.21h4.34l4.14,15.21c.28,1.08.53,2.29.76,3.63h.08c.14-1.34.36-2.56.64-3.63l3.92-15.21h4.59l-6.75,23.04Z"/>
    <path class="cls-3" d="M323.03,652.64c-.54.51-1.18.77-1.95.77s-1.4-.26-1.94-.77c-.53-.52-.79-1.15-.79-1.88s.27-1.37.79-1.88c.54-.51,1.19-.77,1.94-.77s1.41.26,1.95.77c.53.51.8,1.14.8,1.88s-.27,1.37-.8,1.88M318.77,657.6h4.63v23.04h-4.63v-23.04Z"/>
    <path class="cls-3" d="M339.85,680.43c-.73.34-1.68.51-2.86.51-4.17,0-6.24-2.25-6.24-6.75v-13.08h-3.08v-3.5h3.08v-5.35l4.51-1.41v6.76h4.59v3.5h-4.59v12.82c0,1.94,1.01,2.91,3.04,2.91.59,0,1.11-.1,1.55-.3v3.89Z"/>
    <path class="cls-3" d="M357.78,680.64v-15.3c0-2.94-1.63-4.41-4.89-4.41-1.49,0-2.84.35-4.05,1.07v18.64h-4.6v-33.56h4.6v11.37c1.69-.82,3.38-1.24,5.1-1.24,2.67,0,4.75.67,6.24,2.01,1.49,1.34,2.24,3.24,2.24,5.73v15.69h-4.64Z"/>
    <path class="cls-6" d="M547.05,617.34c-10.79,0-20.08,7.2-23.8,17.3-.19.52-.86,2.65-.86,2.65l-15.03,65.98h34.54c11.86,0,21.91-8.67,24.76-20.36h0l14.93-65.58h-34.53Z"/>
    <path class="cls-2" d="M489.56,598.24c-11.57,0-21.32,7.94-24.35,18.76-.22.82-.41,1.64-.56,2.48l-23.44,102.89h34.51c11.82,0,21.77-8.3,24.55-19.51h0s0,0,0,0l23.84-104.62h-34.55Z"/>
    <path class="cls-3" d="M423.39,617.34c-11.19,0-20.77,7.72-24.21,18.41-.08.24-.15.48-.22.73l-.57,2.3-14.7,64.5h35.37c10.56,0,19.64-7.11,23.16-17.06l1.4-6.14,14.29-62.73h-34.52Z"/>
    <path class="cls-4" d="M416.94,638.77v.05h-.56c-2.45,0-4.77.89-6.91,2.66-2.05,1.69-3.4,3.75-3.86,5.44h-.02l-7.92,34.88h.44c2.5,0,4.85-.9,6.99-2.68,2.15-1.76,3.52-3.93,4.07-6.44l1.73-7.57h15.76c2.46,0,4.83-.93,6.98-2.69,2.15-1.76,3.52-3.92,4.07-6.41l.11-.46-24.71-.02,1.64-7.18,21.41-.03c2.46,0,4.79-.88,6.9-2.63,2.12-1.74,3.45-3.94,4.04-6.42l.12-.46-30.28-.02Z"/>
    <path class="cls-4" d="M504.31,640.88c-1.35-1.38-3.14-2.09-5.27-2.09l-30.21-.03-9.76,42.97h.01v.05s.43,0,.43,0c2.5,0,4.85-.89,6.99-2.67,2.15-1.76,3.51-3.93,4.08-6.44l1.76-7.66,20.91.02c2.45,0,4.64-.28,6.77-2.01,2.12-1.74,3.63-4.49,4.22-7.03l1.83-7.96c.14-.63.22-1.28.23-1.96.04-2.06-.63-3.8-1.99-5.17M494.88,655.52l-20.37-.02,1.64-7.2,20.38.02-1.65,7.21Z"/>
    <path class="cls-4" d="M565.77,640.91c-1.34-1.39-3.11-2.08-5.25-2.08h-31.88l-.07.3c-.14.68-.22,1.3-.22,1.89-.04,2.09.62,3.86,1.96,5.25,1.34,1.38,3.11,2.07,5.27,2.07h6.67l-7.59,33.44h.45c2.49,0,4.84-.9,6.98-2.68,2.15-1.76,3.53-3.93,4.08-6.44l5.56-24.32h15.73l.07-.3c.14-.64.21-1.29.22-1.95.03-2.07-.62-3.82-1.96-5.19"/>
    <path class="cls-3" d="M571.97,695.86c0-4.07,3.27-7.39,7.31-7.39s7.3,3.32,7.3,7.39-3.28,7.41-7.3,7.41-7.31-3.32-7.31-7.41M584.79,695.86c0-3.45-2.47-5.97-5.51-5.97s-5.53,2.51-5.53,5.97,2.47,5.97,5.53,5.97,5.51-2.5,5.51-5.97M576.45,691.64h3.08c1.98,0,3.06.7,3.06,2.46,0,1.43-.81,2.13-2.17,2.25l2.22,3.66h-1.57l-2.14-3.61h-.93v3.61h-1.55v-8.38ZM578,695.23h1.36c.91,0,1.69-.13,1.69-1.25,0-.99-.89-1.15-1.69-1.15h-1.36v2.4Z"/>
    <polygon class="cls-3" points="602.79 681.63 602.79 648.51 619.94 648.51 619.94 652.86 607.8 652.86 607.8 662.6 618.86 662.6 618.86 666.86 607.8 666.86 607.8 677.29 619.94 677.29 619.94 681.63 602.79 681.63"/>
    <path class="cls-3" d="M642.64,680.39c-2.04,1.16-4.83,1.73-8.34,1.73-3.77,0-6.69-1.12-8.77-3.38-2.08-2.22-3.11-5.31-3.11-9.24s.96-6.93,2.88-9.19c2.02-2.37,4.83-3.57,8.45-3.57,1.44,0,2.75.2,3.92.59v-11.62h4.96v34.67ZM637.68,661.14c-.85-.37-2-.55-3.48-.55-2.15,0-3.86.83-5.09,2.51-1.14,1.59-1.72,3.72-1.72,6.4s.59,4.84,1.75,6.36c1.18,1.52,2.86,2.28,5.05,2.28,1.54,0,2.7-.2,3.48-.64v-16.37Z"/>
    <path class="cls-3" d="M666.01,680.39c-2.28,1.16-5.37,1.73-9.24,1.73-6.56,0-9.83-2.95-9.83-8.87v-16.29h4.92v16.38c0,3.11,1.64,4.66,4.92,4.66,1.86,0,3.31-.23,4.33-.68v-20.36h4.91v23.43Z"/>
    <path class="cls-3" d="M686.32,680.44c-1.64,1.13-3.72,1.69-6.22,1.69-2.98,0-5.42-1.02-7.35-3.06-2.22-2.34-3.34-5.61-3.34-9.79s1.12-7.42,3.34-9.74c1.94-2.04,4.37-3.06,7.35-3.06,2.5,0,4.58.56,6.22,1.69l-1.61,3.61c-1.09-.79-2.42-1.18-3.98-1.18-1.78,0-3.22.68-4.33,2.06-1.26,1.55-1.9,3.75-1.9,6.58s.65,5.03,1.95,6.59c1.14,1.4,2.57,2.1,4.29,2.1,1.56,0,2.89-.4,3.98-1.19l1.61,3.7Z"/>
    <path class="cls-3" d="M707.31,680.39c-2.14,1.16-5.05,1.73-8.75,1.73-7.01,0-10.53-2.57-10.53-7.73,0-3.11,1.51-5.34,4.52-6.68,2.2-.97,5.55-1.58,10.07-1.82v-1.55c0-2.81-1.72-4.21-5.15-4.21-2.37,0-4.62.5-6.73,1.51l-1.26-3.43c2.59-1.16,5.41-1.73,8.48-1.73,6.23,0,9.34,2.79,9.34,8.37v15.55ZM702.62,669.23c-3.25.19-5.53.52-6.83,1.01-2.07.77-3.11,2.12-3.11,4.07,0,2.81,1.92,4.21,5.73,4.21,1.89,0,3.29-.22,4.2-.64v-8.65Z"/>
    <path class="cls-3" d="M723.02,681.4c-.79.37-1.8.55-3.07.55-4.46,0-6.68-2.4-6.68-7.23v-14h-3.3v-3.75h3.3v-5.71l4.83-1.51v7.22h4.92v3.75h-4.92v13.73c0,2.07,1.08,3.11,3.24,3.11.64,0,1.2-.11,1.67-.32v4.16Z"/>
    <path class="cls-3" d="M730.65,651.67c-.57.55-1.26.82-2.08.82s-1.5-.27-2.08-.82c-.57-.55-.85-1.22-.85-2.01s.28-1.46.85-2.02c.57-.55,1.27-.83,2.08-.83s1.51.28,2.08.83c.57.55.86,1.22.86,2.02s-.28,1.46-.86,2.01M726.09,656.97h4.97v24.66h-4.97v-24.66Z"/>
    <path class="cls-3" d="M753.21,678.43c-1.92,2.47-4.57,3.7-7.94,3.7s-6.02-1.23-7.94-3.7c-1.85-2.32-2.76-5.37-2.76-9.15s.91-6.82,2.76-9.14c1.92-2.44,4.57-3.66,7.94-3.66s6.02,1.22,7.94,3.66c1.84,2.32,2.76,5.37,2.76,9.14s-.92,6.83-2.76,9.15M749.56,662.83c-.99-1.59-2.43-2.38-4.29-2.38s-3.3.79-4.28,2.38c-.97,1.55-1.46,3.69-1.46,6.4s.49,4.85,1.46,6.4c.99,1.62,2.42,2.42,4.28,2.42s3.3-.8,4.29-2.42c.95-1.55,1.44-3.69,1.44-6.4s-.49-4.85-1.44-6.4"/>
    <path class="cls-3" d="M773.84,681.63v-16.47c0-3.11-1.69-4.67-5.09-4.67-1.81,0-3.3.25-4.48.73v20.41h-4.91v-23.42c2.79-1.16,5.9-1.73,9.34-1.73,6.75,0,10.11,2.74,10.11,8.23v16.92h-4.96Z"/>
  </g>
</svg>